<mxfile host="app.diagrams.net" modified="2021-09-14T07:34:22.629Z" agent="5.0 (Windows NT 10.0; Win64; x64) AppleWebKit/537.36 (KHTML, like Gecko) Chrome/93.0.4577.63 Safari/537.36 Edg/93.0.961.44" etag="EoumwkEKT3NlIP_mXTR2" version="15.2.1" type="github">
  <diagram id="_wJF_g7P9HPV1aVkU8fN" name="Page-1">
    <mxGraphModel dx="771" dy="433" grid="1" gridSize="10" guides="1" tooltips="1" connect="1" arrows="1" fold="1" page="1" pageScale="1" pageWidth="827" pageHeight="1169" math="0" shadow="0">
      <root>
        <mxCell id="0" />
        <mxCell id="1" parent="0" />
        <mxCell id="H1FAHQAUZJYMYiSX6TXz-137" value="" style="shape=table;startSize=0;container=1;collapsible=0;childLayout=tableLayout;" vertex="1" parent="1">
          <mxGeometry x="280" y="160" width="200" height="200" as="geometry" />
        </mxCell>
        <mxCell id="H1FAHQAUZJYMYiSX6TXz-138" value="" style="shape=partialRectangle;collapsible=0;dropTarget=0;pointerEvents=0;fillColor=none;top=0;left=0;bottom=0;right=0;points=[[0,0.5],[1,0.5]];portConstraint=eastwest;" vertex="1" parent="H1FAHQAUZJYMYiSX6TXz-137">
          <mxGeometry width="200" height="40" as="geometry" />
        </mxCell>
        <mxCell id="H1FAHQAUZJYMYiSX6TXz-139" value="" style="shape=partialRectangle;html=1;whiteSpace=wrap;connectable=0;overflow=hidden;fillColor=#f8cecc;top=0;left=0;bottom=0;right=0;pointerEvents=1;strokeColor=#b85450;" vertex="1" parent="H1FAHQAUZJYMYiSX6TXz-138">
          <mxGeometry width="40" height="40" as="geometry" />
        </mxCell>
        <mxCell id="H1FAHQAUZJYMYiSX6TXz-140" value="" style="shape=partialRectangle;html=1;whiteSpace=wrap;connectable=0;overflow=hidden;fillColor=#f8cecc;top=0;left=0;bottom=0;right=0;pointerEvents=1;strokeColor=#007D65;labelBorderColor=none;labelBackgroundColor=none;gradientColor=#F15B6C;gradientDirection=radial;" vertex="1" parent="H1FAHQAUZJYMYiSX6TXz-138">
          <mxGeometry x="40" width="40" height="40" as="geometry" />
        </mxCell>
        <mxCell id="H1FAHQAUZJYMYiSX6TXz-141" value="" style="shape=partialRectangle;html=1;whiteSpace=wrap;connectable=0;overflow=hidden;fillColor=#f8cecc;top=0;left=0;bottom=0;right=0;pointerEvents=1;strokeColor=#b85450;" vertex="1" parent="H1FAHQAUZJYMYiSX6TXz-138">
          <mxGeometry x="80" width="40" height="40" as="geometry" />
        </mxCell>
        <mxCell id="H1FAHQAUZJYMYiSX6TXz-142" value="" style="shape=partialRectangle;html=1;whiteSpace=wrap;connectable=0;overflow=hidden;fillColor=#fff2cc;top=0;left=0;bottom=0;right=0;pointerEvents=1;strokeColor=#d6b656;" vertex="1" parent="H1FAHQAUZJYMYiSX6TXz-138">
          <mxGeometry x="120" width="40" height="40" as="geometry" />
        </mxCell>
        <mxCell id="H1FAHQAUZJYMYiSX6TXz-143" value="" style="shape=partialRectangle;html=1;whiteSpace=wrap;connectable=0;overflow=hidden;fillColor=#fff2cc;top=0;left=0;bottom=0;right=0;pointerEvents=1;strokeColor=#d6b656;" vertex="1" parent="H1FAHQAUZJYMYiSX6TXz-138">
          <mxGeometry x="160" width="40" height="40" as="geometry" />
        </mxCell>
        <mxCell id="H1FAHQAUZJYMYiSX6TXz-144" value="" style="shape=partialRectangle;collapsible=0;dropTarget=0;pointerEvents=0;fillColor=none;top=0;left=0;bottom=0;right=0;points=[[0,0.5],[1,0.5]];portConstraint=eastwest;" vertex="1" parent="H1FAHQAUZJYMYiSX6TXz-137">
          <mxGeometry y="40" width="200" height="40" as="geometry" />
        </mxCell>
        <mxCell id="H1FAHQAUZJYMYiSX6TXz-145" value="" style="shape=partialRectangle;html=1;whiteSpace=wrap;connectable=0;overflow=hidden;fillColor=#f8cecc;top=0;left=0;bottom=0;right=0;pointerEvents=1;strokeColor=#b85450;" vertex="1" parent="H1FAHQAUZJYMYiSX6TXz-144">
          <mxGeometry width="40" height="40" as="geometry" />
        </mxCell>
        <mxCell id="H1FAHQAUZJYMYiSX6TXz-146" value="" style="shape=partialRectangle;html=1;whiteSpace=wrap;connectable=0;overflow=hidden;fillColor=#f8cecc;top=0;left=0;bottom=0;right=0;pointerEvents=1;strokeColor=#b85450;" vertex="1" parent="H1FAHQAUZJYMYiSX6TXz-144">
          <mxGeometry x="40" width="40" height="40" as="geometry" />
        </mxCell>
        <mxCell id="H1FAHQAUZJYMYiSX6TXz-147" value="" style="shape=partialRectangle;html=1;whiteSpace=wrap;connectable=0;overflow=hidden;fillColor=#f8cecc;top=0;left=0;bottom=0;right=0;pointerEvents=1;strokeColor=#b85450;" vertex="1" parent="H1FAHQAUZJYMYiSX6TXz-144">
          <mxGeometry x="80" width="40" height="40" as="geometry" />
        </mxCell>
        <mxCell id="H1FAHQAUZJYMYiSX6TXz-148" value="" style="shape=partialRectangle;html=1;whiteSpace=wrap;connectable=0;overflow=hidden;fillColor=#fff2cc;top=0;left=0;bottom=0;right=0;pointerEvents=1;strokeColor=#d6b656;" vertex="1" parent="H1FAHQAUZJYMYiSX6TXz-144">
          <mxGeometry x="120" width="40" height="40" as="geometry" />
        </mxCell>
        <mxCell id="H1FAHQAUZJYMYiSX6TXz-149" value="" style="shape=partialRectangle;html=1;whiteSpace=wrap;connectable=0;overflow=hidden;fillColor=#fff2cc;top=0;left=0;bottom=0;right=0;pointerEvents=1;strokeColor=#d6b656;fontSize=7;gradientDirection=radial;gradientColor=#FFFF66;" vertex="1" parent="H1FAHQAUZJYMYiSX6TXz-144">
          <mxGeometry x="160" width="40" height="40" as="geometry" />
        </mxCell>
        <mxCell id="H1FAHQAUZJYMYiSX6TXz-150" value="" style="shape=partialRectangle;collapsible=0;dropTarget=0;pointerEvents=0;fillColor=none;top=0;left=0;bottom=0;right=0;points=[[0,0.5],[1,0.5]];portConstraint=eastwest;" vertex="1" parent="H1FAHQAUZJYMYiSX6TXz-137">
          <mxGeometry y="80" width="200" height="40" as="geometry" />
        </mxCell>
        <mxCell id="H1FAHQAUZJYMYiSX6TXz-151" value="" style="shape=partialRectangle;html=1;whiteSpace=wrap;connectable=0;overflow=hidden;fillColor=#d5e8d4;top=0;left=0;bottom=0;right=0;pointerEvents=1;strokeColor=#82b366;" vertex="1" parent="H1FAHQAUZJYMYiSX6TXz-150">
          <mxGeometry width="40" height="40" as="geometry" />
        </mxCell>
        <mxCell id="H1FAHQAUZJYMYiSX6TXz-152" value="" style="shape=partialRectangle;html=1;whiteSpace=wrap;connectable=0;overflow=hidden;fillColor=#d5e8d4;top=0;left=0;bottom=0;right=0;pointerEvents=1;strokeColor=#82b366;" vertex="1" parent="H1FAHQAUZJYMYiSX6TXz-150">
          <mxGeometry x="40" width="40" height="40" as="geometry" />
        </mxCell>
        <mxCell id="H1FAHQAUZJYMYiSX6TXz-153" value="" style="shape=partialRectangle;html=1;whiteSpace=wrap;connectable=0;overflow=hidden;fillColor=none;top=0;left=0;bottom=0;right=0;pointerEvents=1;" vertex="1" parent="H1FAHQAUZJYMYiSX6TXz-150">
          <mxGeometry x="80" width="40" height="40" as="geometry" />
        </mxCell>
        <mxCell id="H1FAHQAUZJYMYiSX6TXz-154" value="" style="shape=partialRectangle;html=1;whiteSpace=wrap;connectable=0;overflow=hidden;fillColor=#fff2cc;top=0;left=0;bottom=0;right=0;pointerEvents=1;strokeColor=#d6b656;" vertex="1" parent="H1FAHQAUZJYMYiSX6TXz-150">
          <mxGeometry x="120" width="40" height="40" as="geometry" />
        </mxCell>
        <mxCell id="H1FAHQAUZJYMYiSX6TXz-155" value="" style="shape=partialRectangle;html=1;whiteSpace=wrap;connectable=0;overflow=hidden;fillColor=#fff2cc;top=0;left=0;bottom=0;right=0;pointerEvents=1;strokeColor=#d6b656;" vertex="1" parent="H1FAHQAUZJYMYiSX6TXz-150">
          <mxGeometry x="160" width="40" height="40" as="geometry" />
        </mxCell>
        <mxCell id="H1FAHQAUZJYMYiSX6TXz-156" value="" style="shape=partialRectangle;collapsible=0;dropTarget=0;pointerEvents=0;fillColor=none;top=0;left=0;bottom=0;right=0;points=[[0,0.5],[1,0.5]];portConstraint=eastwest;" vertex="1" parent="H1FAHQAUZJYMYiSX6TXz-137">
          <mxGeometry y="120" width="200" height="40" as="geometry" />
        </mxCell>
        <mxCell id="H1FAHQAUZJYMYiSX6TXz-157" value="" style="shape=partialRectangle;html=1;whiteSpace=wrap;connectable=0;overflow=hidden;fillColor=#d5e8d4;top=0;left=0;bottom=0;right=0;pointerEvents=1;strokeColor=#82b366;strokeWidth=3;gradientDirection=radial;gradientColor=#007D65;" vertex="1" parent="H1FAHQAUZJYMYiSX6TXz-156">
          <mxGeometry width="40" height="40" as="geometry" />
        </mxCell>
        <mxCell id="H1FAHQAUZJYMYiSX6TXz-158" value="" style="shape=partialRectangle;html=1;whiteSpace=wrap;connectable=0;overflow=hidden;fillColor=#d5e8d4;top=0;left=0;bottom=0;right=0;pointerEvents=1;strokeColor=#82b366;" vertex="1" parent="H1FAHQAUZJYMYiSX6TXz-156">
          <mxGeometry x="40" width="40" height="40" as="geometry" />
        </mxCell>
        <mxCell id="H1FAHQAUZJYMYiSX6TXz-159" value="" style="shape=partialRectangle;html=1;whiteSpace=wrap;connectable=0;overflow=hidden;fillColor=#ffe6cc;top=0;left=0;bottom=0;right=0;pointerEvents=1;strokeColor=#d79b00;" vertex="1" parent="H1FAHQAUZJYMYiSX6TXz-156">
          <mxGeometry x="80" width="40" height="40" as="geometry" />
        </mxCell>
        <mxCell id="H1FAHQAUZJYMYiSX6TXz-160" value="" style="shape=partialRectangle;html=1;whiteSpace=wrap;connectable=0;overflow=hidden;fillColor=#ffe6cc;top=0;left=0;bottom=0;right=0;pointerEvents=1;strokeColor=#d79b00;" vertex="1" parent="H1FAHQAUZJYMYiSX6TXz-156">
          <mxGeometry x="120" width="40" height="40" as="geometry" />
        </mxCell>
        <mxCell id="H1FAHQAUZJYMYiSX6TXz-161" value="" style="shape=partialRectangle;html=1;whiteSpace=wrap;connectable=0;overflow=hidden;fillColor=#ffe6cc;top=0;left=0;bottom=0;right=0;pointerEvents=1;strokeColor=#d79b00;" vertex="1" parent="H1FAHQAUZJYMYiSX6TXz-156">
          <mxGeometry x="160" width="40" height="40" as="geometry" />
        </mxCell>
        <mxCell id="H1FAHQAUZJYMYiSX6TXz-162" value="" style="shape=partialRectangle;collapsible=0;dropTarget=0;pointerEvents=0;fillColor=none;top=0;left=0;bottom=0;right=0;points=[[0,0.5],[1,0.5]];portConstraint=eastwest;" vertex="1" parent="H1FAHQAUZJYMYiSX6TXz-137">
          <mxGeometry y="160" width="200" height="40" as="geometry" />
        </mxCell>
        <mxCell id="H1FAHQAUZJYMYiSX6TXz-163" value="" style="shape=partialRectangle;html=1;whiteSpace=wrap;connectable=0;overflow=hidden;fillColor=#d5e8d4;top=0;left=0;bottom=0;right=0;pointerEvents=1;strokeColor=#82b366;" vertex="1" parent="H1FAHQAUZJYMYiSX6TXz-162">
          <mxGeometry width="40" height="40" as="geometry" />
        </mxCell>
        <mxCell id="H1FAHQAUZJYMYiSX6TXz-164" value="" style="shape=partialRectangle;html=1;whiteSpace=wrap;connectable=0;overflow=hidden;fillColor=#d5e8d4;top=0;left=0;bottom=0;right=0;pointerEvents=1;strokeColor=#82b366;" vertex="1" parent="H1FAHQAUZJYMYiSX6TXz-162">
          <mxGeometry x="40" width="40" height="40" as="geometry" />
        </mxCell>
        <mxCell id="H1FAHQAUZJYMYiSX6TXz-165" value="" style="shape=partialRectangle;html=1;whiteSpace=wrap;connectable=0;overflow=hidden;fillColor=#ffe6cc;top=0;left=0;bottom=0;right=0;pointerEvents=1;strokeColor=#d79b00;" vertex="1" parent="H1FAHQAUZJYMYiSX6TXz-162">
          <mxGeometry x="80" width="40" height="40" as="geometry" />
        </mxCell>
        <mxCell id="H1FAHQAUZJYMYiSX6TXz-166" value="" style="shape=partialRectangle;html=1;whiteSpace=wrap;connectable=0;overflow=hidden;fillColor=#ffe6cc;top=0;left=0;bottom=0;right=0;pointerEvents=1;strokeColor=#d79b00;gradientDirection=radial;gradientColor=#FFCE7B;" vertex="1" parent="H1FAHQAUZJYMYiSX6TXz-162">
          <mxGeometry x="120" width="40" height="40" as="geometry" />
        </mxCell>
        <mxCell id="H1FAHQAUZJYMYiSX6TXz-167" value="" style="shape=partialRectangle;html=1;whiteSpace=wrap;connectable=0;overflow=hidden;fillColor=#ffe6cc;top=0;left=0;bottom=0;right=0;pointerEvents=1;strokeColor=#d79b00;" vertex="1" parent="H1FAHQAUZJYMYiSX6TXz-162">
          <mxGeometry x="160" width="40" height="40" as="geometry" />
        </mxCell>
        <mxCell id="H1FAHQAUZJYMYiSX6TXz-198" value="&lt;span style=&quot;color: rgb(33 , 133 , 186) ; font-family: &amp;#34;monaco&amp;#34; ; font-size: 11px&quot;&gt;(j,n-1-i)&lt;/span&gt;" style="text;html=1;strokeColor=none;fillColor=none;align=center;verticalAlign=middle;whiteSpace=wrap;rounded=0;fontSize=7;" vertex="1" parent="1">
          <mxGeometry x="480" y="200" width="70" height="20" as="geometry" />
        </mxCell>
        <mxCell id="H1FAHQAUZJYMYiSX6TXz-199" value="&lt;span style=&quot;color: rgb(33 , 133 , 186) ; font-family: &amp;#34;monaco&amp;#34; ; font-size: 11px&quot;&gt;(n-1-i,n-1-j)&lt;/span&gt;" style="text;html=1;strokeColor=none;fillColor=none;align=center;verticalAlign=middle;whiteSpace=wrap;rounded=0;fontSize=7;" vertex="1" parent="1">
          <mxGeometry x="370" y="360" width="100" height="20" as="geometry" />
        </mxCell>
        <mxCell id="H1FAHQAUZJYMYiSX6TXz-200" value="&lt;span style=&quot;color: rgb(33 , 133 , 186) ; font-family: &amp;#34;monaco&amp;#34; ; font-size: 11px&quot;&gt;(n-1-j,i)&lt;/span&gt;" style="text;html=1;strokeColor=none;fillColor=none;align=center;verticalAlign=middle;whiteSpace=wrap;rounded=0;fontSize=7;" vertex="1" parent="1">
          <mxGeometry x="210" y="290" width="70" height="20" as="geometry" />
        </mxCell>
        <mxCell id="H1FAHQAUZJYMYiSX6TXz-201" value="&#xa;&#xa;&lt;span style=&quot;color: rgb(33, 133, 186); font-family: monaco; font-size: 12px; font-style: normal; font-weight: 400; letter-spacing: normal; text-align: center; text-indent: 0px; text-transform: none; word-spacing: 0px; display: inline; float: none;&quot;&gt;(i,j)&lt;/span&gt;&#xa;&#xa;" style="text;html=1;strokeColor=none;fillColor=none;align=center;verticalAlign=middle;whiteSpace=wrap;rounded=0;labelBackgroundColor=none;fontSize=7;" vertex="1" parent="1">
          <mxGeometry x="320" y="140" width="40" height="20" as="geometry" />
        </mxCell>
        <mxCell id="H1FAHQAUZJYMYiSX6TXz-202" value="" style="endArrow=none;html=1;fontSize=7;endFill=0;strokeColor=#2185BA;startArrow=blockThin;startFill=1;" edge="1" parent="1">
          <mxGeometry width="50" height="50" relative="1" as="geometry">
            <mxPoint x="320" y="310" as="sourcePoint" />
            <mxPoint x="400" y="340" as="targetPoint" />
          </mxGeometry>
        </mxCell>
        <mxCell id="H1FAHQAUZJYMYiSX6TXz-204" value="" style="endArrow=blockThin;html=1;fontSize=7;endFill=1;strokeColor=#2185BA;" edge="1" parent="1">
          <mxGeometry width="50" height="50" relative="1" as="geometry">
            <mxPoint x="460" y="240" as="sourcePoint" />
            <mxPoint x="420" y="320" as="targetPoint" />
          </mxGeometry>
        </mxCell>
        <mxCell id="H1FAHQAUZJYMYiSX6TXz-205" value="" style="endArrow=none;html=1;fontSize=7;endFill=0;strokeColor=#2185BA;startArrow=blockThin;startFill=1;" edge="1" parent="1">
          <mxGeometry width="50" height="50" relative="1" as="geometry">
            <mxPoint x="340" y="200" as="sourcePoint" />
            <mxPoint x="300" y="280" as="targetPoint" />
          </mxGeometry>
        </mxCell>
        <mxCell id="H1FAHQAUZJYMYiSX6TXz-206" value="" style="endArrow=blockThin;html=1;fontSize=7;endFill=1;strokeColor=#2185BA;" edge="1" parent="1">
          <mxGeometry width="50" height="50" relative="1" as="geometry">
            <mxPoint x="360" y="180" as="sourcePoint" />
            <mxPoint x="440" y="210" as="targetPoint" />
          </mxGeometry>
        </mxCell>
        <mxCell id="H1FAHQAUZJYMYiSX6TXz-207" value="" style="rounded=0;whiteSpace=wrap;html=1;labelBackgroundColor=none;fontSize=7;strokeColor=none;strokeWidth=5;gradientDirection=radial;fillColor=none;" vertex="1" parent="1">
          <mxGeometry x="200" y="130" width="360" height="260" as="geometry" />
        </mxCell>
      </root>
    </mxGraphModel>
  </diagram>
</mxfile>
